<svg width="619" height="104" viewBox="0 0 619 104" fill="none" xmlns="http://www.w3.org/2000/svg">
<g clip-path="url(#clip0_420_22)">
<path fill-rule="evenodd" clip-rule="evenodd" d="M81.9702 23.8142C82.0956 24.2119 82.2172 24.5977 82.3357 24.9652C85.8594 35.7816 86.0677 45.1849 85.9876 50.1871C85.9785 50.7609 85.9702 51.3276 85.9621 51.8872C85.7984 63.1441 85.6758 71.5742 79.4046 78.722C76.2012 82.3762 72.3891 84.8285 71.0117 85.6243C65.9983 88.5314 61.4975 89.3597 57.5093 90.0905C52.544 91 48.716 91 45 91C41.284 91 37.456 91 32.4907 90.0905C28.5025 89.3597 24.0177 88.5314 18.9883 85.6243C17.6109 84.8285 13.7988 82.3762 10.5954 78.722C4.34875 71.6021 4.2171 63.1954 4.04204 52.017C4.03262 51.4151 4.02307 50.8052 4.01243 50.1871C3.93234 45.1849 4.14056 35.7816 7.66431 24.9652C7.78644 24.5878 7.91196 24.1907 8.04152 23.7808C9.32224 19.7289 10.9987 14.425 13.7187 14.425C16.8421 14.425 19.581 22.1231 20.5901 25.0789C21.1768 26.722 22.7747 30.9469 23.2587 32.2266C23.3296 32.4142 23.3766 32.5385 23.393 32.5821C23.4092 32.5739 23.4277 32.5644 23.4483 32.5538C23.591 32.4805 23.836 32.3546 24.1298 32.2411C24.3936 32.1389 24.6445 32.0426 24.87 31.9561C25.3975 31.7536 25.7859 31.6045 25.8757 31.559C26.3676 31.3946 26.7113 31.2876 26.9815 31.2034C27.4857 31.0464 27.7345 30.969 28.2142 30.7469C28.2598 30.7252 28.3072 30.7034 28.3561 30.681C28.5991 30.5694 28.8791 30.4408 29.1592 30.211C29.1896 30.1825 29.2282 30.1478 29.2739 30.1067C29.5409 29.8668 30.049 29.4102 30.5687 28.7168C31.2828 27.6307 31.765 26.3093 32.1523 25.2481C32.3036 24.8336 32.4403 24.4588 32.5708 24.1532C33.0993 23.0001 34.1725 21.506 36.6551 20.2067C36.527 20.6127 36.3828 21.4248 36.5911 22.383C36.8634 23.7472 37.7283 24.6242 38.0646 24.9003C38.4651 23.8771 39.2018 22.4642 40.275 20.8888C43.2061 16.8774 46.8259 15.1071 47.835 14.6361C47.8709 14.6206 47.9076 14.6047 47.9449 14.5885C49.5078 13.9105 52.3432 12.6805 56.0037 13.077C58.198 13.3531 59.8798 14.019 60.953 14.5712C59.9439 14.7173 58.0699 15.1234 56.5963 16.6175C53.7773 19.4109 53.6492 24.3806 55.6513 27.0928C57.1855 29.1993 60.1866 30.2226 61.9978 30.8402L62.0101 30.8444C62.1258 30.9065 62.3718 30.9892 62.7197 31.1061C63.1903 31.2643 63.8473 31.4851 64.6209 31.8026C65.2135 31.9975 65.8862 32.2736 66.623 32.6146C66.7671 32.2736 68.7693 26.9953 69.426 25.1114C70.419 22.1231 73.1579 14.425 76.2813 14.425C79.0096 14.425 80.688 19.7478 81.9702 23.8142ZM34.8787 67.7219C36.2081 66.3577 36.4163 64.6037 36.5445 62.9147C36.6886 61.9565 37.2813 55.8175 32.6684 51.5787C31.7394 50.6854 28.4719 47.6484 24.0192 48.4604C20.095 49.1263 16.8275 52.5044 16.299 56.4996C15.8073 60.3973 18.1845 63.3534 19.1633 64.5706C19.2368 64.6619 19.3023 64.7434 19.3582 64.8148C21.6072 67.3607 24.3302 68.0741 25.9031 68.4861C25.9657 68.5025 26.0265 68.5184 26.0854 68.534C26.1647 68.5526 26.2476 68.5723 26.3339 68.5929C28.4272 69.0907 32.5098 70.0615 34.8787 67.7219ZM64.0612 68.4757C65.6315 68.0636 68.3844 67.3411 70.6287 64.7986C70.6847 64.7268 70.7509 64.6443 70.8254 64.5514C71.7963 63.3414 74.1777 60.3735 73.672 56.4671C73.1434 52.4881 69.8759 49.1101 65.9517 48.4279C61.499 47.6159 58.2315 50.6692 57.3025 51.5462C52.7057 55.8012 53.3143 61.9565 53.4425 62.8984C53.5706 64.5875 53.7788 66.3577 55.1082 67.7057C57.4771 70.0453 61.5598 69.0744 63.653 68.5766C63.7393 68.5561 63.8223 68.5364 63.9016 68.5177C63.9533 68.5041 64.0065 68.4901 64.0612 68.4757Z" fill="#4ade80"/>
<path d="M570.771 75.4H580.776V45.2668L593.718 64.8666H593.983L607.058 45V75.2666H617.196V28.8667H606.124L593.851 48.4666L581.577 28.8667H570.771V75.4ZM506.47 75.4H516.875L519.011 70.2C523.012 60.4666 526.88 50.7333 531.017 40.8668C534.885 50.2 538.62 59.5332 542.489 68.8667L545.158 75.2666H555.831L535.819 28.6H526.347L506.47 75.4ZM458.045 75.4H493.398V66.3332H468.182V56.5999H490.06V47.5334H468.182V38.0666H492.997V28.9999H457.909V75.4H458.045ZM412.153 66.3332V56.0666H424.026C429.229 56.0666 431.63 57.9332 431.63 61.1333V61.2666C431.63 64.7332 428.961 66.3332 424.427 66.3332H412.153ZM412.153 47.6666V37.9332H422.291C426.56 37.9332 428.961 39.6666 428.961 42.7333V42.8667C428.961 46.3333 426.159 47.7999 421.625 47.7999H412.153V47.6666ZM402.281 75.4H424.427C434.965 75.4 441.768 71.1334 441.768 62.7333V62.5999C441.768 56.3334 438.433 53.2667 433.097 51.1334C436.432 49.2666 439.234 46.3333 439.234 41.1333V40.9999C439.234 37.8001 438.167 35.2666 436.032 33.1333C433.365 30.4665 429.229 28.9999 423.893 28.9999H402.281V75.4ZM356.655 51.5333V38.1999H366.795C371.73 38.1999 374.8 40.4666 374.8 44.8666V45C374.8 48.8667 371.998 51.5333 366.928 51.5333H356.655ZM346.385 75.4H356.655V60.6H364.66L374.665 75.4H386.673L375.333 58.8666C381.202 56.7333 385.338 51.9334 385.338 44.4667V44.3334C385.338 39.9334 384.004 36.3334 381.337 33.6666C378.268 30.5999 373.733 28.9999 367.862 28.9999H346.65V75.4H346.385ZM293.956 75.4H329.309V66.3332H304.094V56.5999H325.974V47.5334H304.094V38.0666H328.909V28.9999H293.824V75.4H293.956ZM252.066 52.3333V38.1999H259.938C265.008 38.1999 268.208 40.6 268.208 45.2668V45.3999C268.208 49.4 265.273 52.4667 260.07 52.4667H252.066V52.3333ZM241.796 75.4H252.066V61.5334H259.805C270.211 61.5334 278.613 55.9333 278.613 45.2668V45.1334C278.613 35.6665 271.943 29.1332 260.872 29.1332H241.928V75.4H241.796ZM199.505 75.4H209.778V56.8666L227.654 28.9999H215.914L204.575 47.6666L193.501 28.9999H181.495L199.372 57.1334V75.4H199.505ZM128 75.4H138.272V56.7333H157.082V75.4H167.354V28.9999H157.082V47.2667H138.272V28.8667H128V75.4Z" fill="#4ade80"/>
</g>
<defs>
<clipPath id="clip0_420_22">
<rect width="619" height="104" fill="white"/>
</clipPath>
</defs>
</svg>